# xmcd CD database file
#
# Track frame offsets:
#	150
#	9987
#	24966
#	39139
#	54802
#	76694
#	88801
#	103993
#	117165
#	137408
#	149197
#	164678
#	177680
#	200720
#
# Disc length: 2877 seconds
#
# Revision: 0
# Processed by: cddbd v1.5.1PL0 Copyright (c) Steve Scherf et al.
# Submitted via: CDex 1.51
#
DISCID=b90b3b0e
DTITLE=Titi Demeter - Titi Demeter Trio
DYEAR=2004
DGENRE=Jazz
TTITLE0=Les Yeux noirs
TTITLE1=All of me
TTITLE2=Coquette
TTITLE3=Bossa dorado
TTITLE4=Gina
TTITLE5=La partida
TTITLE6=Mima Rosa
TTITLE7=Les deux guitares
TTITLE8=Un soir chez Mano
TTITLE9=Sabrina
TTITLE10=I'll see you in my dream
TTITLE11=Minor swing
TTITLE12=Les fenetres de Moscou
TTITLE13=Les flots du Danube
EXTD=YEAR: 2004
EXTT0=
EXTT1=
EXTT2=
EXTT3=
EXTT4=
EXTT5=
EXTT6=
EXTT7=
EXTT8=
EXTT9=
EXTT10=
EXTT11=
EXTT12=
EXTT13=
PLAYORDER=
